<svg id="visual" viewBox="0 0 900 600" width="900" height="600" xmlns="http://www.w3.org/2000/svg" xmlns:xlink="http://www.w3.org/1999/xlink" version="1.1"><rect x="0" y="0" width="900" height="600" fill="#F6E1E0"></rect><defs><linearGradient id="grad1_0" x1="33.3%" y1="100%" x2="100%" y2="0%"><stop offset="20%" stop-color="#cb5ea2" stop-opacity="1"></stop><stop offset="80%" stop-color="#cb5ea2" stop-opacity="1"></stop></linearGradient></defs><defs><linearGradient id="grad1_1" x1="33.3%" y1="100%" x2="100%" y2="0%"><stop offset="20%" stop-color="#cb5ea2" stop-opacity="1"></stop><stop offset="80%" stop-color="#da78a5" stop-opacity="1"></stop></linearGradient></defs><defs><linearGradient id="grad1_2" x1="33.3%" y1="100%" x2="100%" y2="0%"><stop offset="20%" stop-color="#e692ad" stop-opacity="1"></stop><stop offset="80%" stop-color="#da78a5" stop-opacity="1"></stop></linearGradient></defs><defs><linearGradient id="grad1_3" x1="33.3%" y1="100%" x2="100%" y2="0%"><stop offset="20%" stop-color="#e692ad" stop-opacity="1"></stop><stop offset="80%" stop-color="#eeacb9" stop-opacity="1"></stop></linearGradient></defs><defs><linearGradient id="grad1_4" x1="33.3%" y1="100%" x2="100%" y2="0%"><stop offset="20%" stop-color="#f3c7ca" stop-opacity="1"></stop><stop offset="80%" stop-color="#eeacb9" stop-opacity="1"></stop></linearGradient></defs><defs><linearGradient id="grad1_5" x1="33.3%" y1="100%" x2="100%" y2="0%"><stop offset="20%" stop-color="#f3c7ca" stop-opacity="1"></stop><stop offset="80%" stop-color="#f6e1e0" stop-opacity="1"></stop></linearGradient></defs><defs><linearGradient id="grad2_0" x1="0%" y1="100%" x2="66.7%" y2="0%"><stop offset="20%" stop-color="#cb5ea2" stop-opacity="1"></stop><stop offset="80%" stop-color="#cb5ea2" stop-opacity="1"></stop></linearGradient></defs><defs><linearGradient id="grad2_1" x1="0%" y1="100%" x2="66.7%" y2="0%"><stop offset="20%" stop-color="#da78a5" stop-opacity="1"></stop><stop offset="80%" stop-color="#cb5ea2" stop-opacity="1"></stop></linearGradient></defs><defs><linearGradient id="grad2_2" x1="0%" y1="100%" x2="66.7%" y2="0%"><stop offset="20%" stop-color="#da78a5" stop-opacity="1"></stop><stop offset="80%" stop-color="#e692ad" stop-opacity="1"></stop></linearGradient></defs><defs><linearGradient id="grad2_3" x1="0%" y1="100%" x2="66.7%" y2="0%"><stop offset="20%" stop-color="#eeacb9" stop-opacity="1"></stop><stop offset="80%" stop-color="#e692ad" stop-opacity="1"></stop></linearGradient></defs><defs><linearGradient id="grad2_4" x1="0%" y1="100%" x2="66.7%" y2="0%"><stop offset="20%" stop-color="#eeacb9" stop-opacity="1"></stop><stop offset="80%" stop-color="#f3c7ca" stop-opacity="1"></stop></linearGradient></defs><defs><linearGradient id="grad2_5" x1="0%" y1="100%" x2="66.7%" y2="0%"><stop offset="20%" stop-color="#f6e1e0" stop-opacity="1"></stop><stop offset="80%" stop-color="#f3c7ca" stop-opacity="1"></stop></linearGradient></defs><g transform="translate(900, 600)"><path d="M-513.8 0C-512.6 -111 -511.3 -222 -445 -256.9C-378.6 -291.8 -247 -250.5 -162 -280.6C-77 -310.7 -38.5 -412.3 0 -513.8L0 0Z" fill="#f5d4d4"></path><path d="M-428.2 0C-427.1 -92.5 -426.1 -185 -370.8 -214.1C-315.5 -243.1 -205.8 -208.7 -135 -233.8C-64.2 -258.9 -32.1 -343.5 0 -428.2L0 0Z" fill="#f1b9c0"></path><path d="M-342.5 0C-341.7 -74 -340.9 -148 -296.6 -171.3C-252.4 -194.5 -164.7 -167 -108 -187.1C-51.3 -207.1 -25.7 -274.8 0 -342.5L0 0Z" fill="#ea9fb2"></path><path d="M-256.9 0C-256.3 -55.5 -255.7 -111 -222.5 -128.4C-189.3 -145.9 -123.5 -125.2 -81 -140.3C-38.5 -155.4 -19.2 -206.1 0 -256.9L0 0Z" fill="#e185a8"></path><path d="M-171.3 0C-170.9 -37 -170.4 -74 -148.3 -85.6C-126.2 -97.3 -82.3 -83.5 -54 -93.5C-25.7 -103.6 -12.8 -137.4 0 -171.3L0 0Z" fill="#d36ba3"></path><path d="M-85.6 0C-85.4 -18.5 -85.2 -37 -74.2 -42.8C-63.1 -48.6 -41.2 -41.7 -27 -46.8C-12.8 -51.8 -6.4 -68.7 0 -85.6L0 0Z" fill="#cb5ea2"></path></g><g transform="translate(0, 0)"><path d="M513.8 0C421 43.6 328.3 87.1 297 171.5C265.8 255.9 296.1 381.1 256.9 445C217.6 508.8 108.8 511.3 0 513.8L0 0Z" fill="#f5d4d4"></path><path d="M428.2 0C350.9 36.3 273.6 72.6 247.5 142.9C221.5 213.2 246.8 317.6 214.1 370.8C181.4 424 90.7 426.1 0 428.2L0 0Z" fill="#f1b9c0"></path><path d="M342.5 0C280.7 29 218.8 58.1 198 114.3C177.2 170.6 197.4 254.1 171.3 296.6C145.1 339.2 72.5 340.9 0 342.5L0 0Z" fill="#ea9fb2"></path><path d="M256.9 0C210.5 21.8 164.1 43.6 148.5 85.7C132.9 127.9 148.1 190.6 128.4 222.5C108.8 254.4 54.4 255.7 0 256.9L0 0Z" fill="#e185a8"></path><path d="M171.3 0C140.3 14.5 109.4 29 99 57.2C88.6 85.3 98.7 127 85.6 148.3C72.5 169.6 36.3 170.4 0 171.3L0 0Z" fill="#d36ba3"></path><path d="M85.6 0C70.2 7.3 54.7 14.5 49.5 28.6C44.3 42.6 49.4 63.5 42.8 74.2C36.3 84.8 18.1 85.2 0 85.6L0 0Z" fill="#cb5ea2"></path></g></svg>